# Blender v3.1.2 OBJ File: 'horse_origin.blend'
# www.blender.org
mtllib front-left.mtl
o front-left_x24_przewalski_horse.001
v -3.917607 4.876758 3.497723
v -3.917607 5.876758 3.497723
v -3.917607 5.876758 2.497723
v -3.917607 4.876758 2.497723
v -2.917607 5.876758 4.497723
v -2.917607 6.876758 4.497723
v -2.917607 6.876758 3.497723
v -2.917607 5.876758 3.497723
v -3.917607 3.876758 3.497723
v -3.917607 4.876758 3.497723
v -3.917607 4.876758 2.497723
v -3.917607 3.876758 2.497723
v -2.917607 2.876758 3.497723
v -2.917607 3.876758 3.497723
v -2.917607 3.876758 2.497723
v -2.917607 2.876758 2.497723
v -2.917607 1.876758 3.497723
v -2.917607 2.876758 3.497723
v -2.917607 2.876758 2.497723
v -2.917607 1.876758 2.497723
v -2.917607 0.876758 3.497723
v -2.917607 1.876758 3.497723
v -2.917607 1.876758 2.497723
v -2.917607 0.876758 2.497723
v -3.917607 -0.123242 3.497723
v -3.917607 0.876758 3.497723
v -3.917607 0.876758 2.497723
v -3.917607 -0.123242 2.497723
v -3.917607 -1.123242 3.497723
v -3.917607 -0.123242 3.497723
v -3.917607 -0.123242 2.497723
v -3.917607 -1.123242 2.497723
v -3.917607 5.876758 3.497723
v -3.917607 6.876758 3.497723
v -3.917607 6.876758 2.497723
v -3.917607 5.876758 2.497723
v -4.917607 5.876758 1.497723
v -4.917607 6.876758 1.497723
v -4.917607 6.876758 0.497723
v -4.917607 5.876758 0.497723
v -3.917607 -1.123242 2.497723
v -3.917607 -0.123242 2.497723
v -3.917607 -0.123242 1.497723
v -3.917607 -1.123242 1.497723
v -3.917607 -0.123242 2.497723
v -3.917607 0.876758 2.497723
v -3.917607 0.876758 1.497723
v -3.917607 -0.123242 1.497723
v -2.917607 0.876758 2.497723
v -2.917607 1.876758 2.497723
v -2.917607 1.876758 1.497723
v -2.917607 0.876758 1.497723
v -2.917607 1.876758 2.497723
v -2.917607 2.876758 2.497723
v -2.917607 2.876758 1.497723
v -2.917607 1.876758 1.497723
v -2.917607 2.876758 2.497723
v -2.917607 3.876758 2.497723
v -2.917607 3.876758 1.497723
v -2.917607 2.876758 1.497723
v -3.917607 3.876758 2.497723
v -3.917607 4.876758 2.497723
v -3.917607 4.876758 1.497723
v -3.917607 3.876758 1.497723
v -3.917607 4.876758 2.497723
v -3.917607 5.876758 2.497723
v -3.917607 5.876758 1.497723
v -3.917607 4.876758 1.497723
v -4.917607 5.876758 2.497723
v -4.917607 6.876758 2.497723
v -4.917607 6.876758 1.497723
v -4.917607 5.876758 1.497723
v -1.917607 5.876758 4.497723
v -1.917607 5.876758 3.497723
v -1.917607 6.876758 3.497723
v -1.917607 6.876758 4.497723
v -1.917607 3.876758 3.497723
v -1.917607 3.876758 2.497723
v -1.917607 4.876758 2.497723
v -1.917607 4.876758 3.497723
v -1.917607 2.876758 3.497723
v -1.917607 2.876758 2.497723
v -1.917607 3.876758 2.497723
v -1.917607 3.876758 3.497723
v -1.917607 1.876758 3.497723
v -1.917607 1.876758 2.497723
v -1.917607 2.876758 2.497723
v -1.917607 2.876758 3.497723
v -1.917607 0.876758 3.497723
v -1.917607 0.876758 2.497723
v -1.917607 1.876758 2.497723
v -1.917607 1.876758 3.497723
v -1.917607 -0.123242 3.497723
v -1.917607 -0.123242 2.497723
v -1.917607 0.876758 2.497723
v -1.917607 0.876758 3.497723
v -0.917607 5.876758 3.497723
v -0.917607 5.876758 2.497723
v -0.917607 6.876758 2.497723
v -0.917607 6.876758 3.497723
v -0.917607 4.876758 3.497723
v -0.917607 4.876758 2.497723
v -0.917607 5.876758 2.497723
v -0.917607 5.876758 3.497723
v -1.917607 -1.123242 3.497723
v -1.917607 -1.123242 2.497723
v -1.917607 -0.123242 2.497723
v -1.917607 -0.123242 3.497723
v -0.917607 5.876758 1.497723
v -0.917607 5.876758 0.497723
v -0.917607 6.876758 0.497723
v -0.917607 6.876758 1.497723
v -1.917607 -1.123242 2.497723
v -1.917607 -1.123242 1.497723
v -1.917607 -0.123242 1.497723
v -1.917607 -0.123242 2.497723
v -0.917607 4.876758 2.497723
v -0.917607 4.876758 1.497723
v -0.917607 5.876758 1.497723
v -0.917607 5.876758 2.497723
v -0.917607 5.876758 2.497723
v -0.917607 5.876758 1.497723
v -0.917607 6.876758 1.497723
v -0.917607 6.876758 2.497723
v -1.917607 -0.123242 2.497723
v -1.917607 -0.123242 1.497723
v -1.917607 0.876758 1.497723
v -1.917607 0.876758 2.497723
v -1.917607 0.876758 2.497723
v -1.917607 0.876758 1.497723
v -1.917607 1.876758 1.497723
v -1.917607 1.876758 2.497723
v -1.917607 1.876758 2.497723
v -1.917607 1.876758 1.497723
v -1.917607 2.876758 1.497723
v -1.917607 2.876758 2.497723
v -1.917607 2.876758 2.497723
v -1.917607 2.876758 1.497723
v -1.917607 3.876758 1.497723
v -1.917607 3.876758 2.497723
v -1.917607 3.876758 2.497723
v -1.917607 3.876758 1.497723
v -1.917607 4.876758 1.497723
v -1.917607 4.876758 2.497723
v -2.917607 4.876758 3.497723
v -1.917607 4.876758 3.497723
v -1.917607 5.876758 3.497723
v -2.917607 5.876758 3.497723
v -3.917607 4.876758 3.497723
v -2.917607 4.876758 3.497723
v -2.917607 5.876758 3.497723
v -3.917607 5.876758 3.497723
v -2.917607 5.876758 4.497723
v -1.917607 5.876758 4.497723
v -1.917607 6.876758 4.497723
v -2.917607 6.876758 4.497723
v -2.917607 3.876758 3.497723
v -1.917607 3.876758 3.497723
v -1.917607 4.876758 3.497723
v -2.917607 4.876758 3.497723
v -3.917607 3.876758 3.497723
v -2.917607 3.876758 3.497723
v -2.917607 4.876758 3.497723
v -3.917607 4.876758 3.497723
v -2.917607 2.876758 3.497723
v -1.917607 2.876758 3.497723
v -1.917607 3.876758 3.497723
v -2.917607 3.876758 3.497723
v -2.917607 1.876758 3.497723
v -1.917607 1.876758 3.497723
v -1.917607 2.876758 3.497723
v -2.917607 2.876758 3.497723
v -2.917607 0.876758 3.497723
v -1.917607 0.876758 3.497723
v -1.917607 1.876758 3.497723
v -2.917607 1.876758 3.497723
v -2.917607 -0.123242 3.497723
v -1.917607 -0.123242 3.497723
v -1.917607 0.876758 3.497723
v -2.917607 0.876758 3.497723
v -3.917607 -0.123242 3.497723
v -2.917607 -0.123242 3.497723
v -2.917607 0.876758 3.497723
v -3.917607 0.876758 3.497723
v -1.917607 5.876758 3.497723
v -0.917607 5.876758 3.497723
v -0.917607 6.876758 3.497723
v -1.917607 6.876758 3.497723
v -1.917607 4.876758 3.497723
v -0.917607 4.876758 3.497723
v -0.917607 5.876758 3.497723
v -1.917607 5.876758 3.497723
v -2.917607 -1.123242 3.497723
v -1.917607 -1.123242 3.497723
v -1.917607 -0.123242 3.497723
v -2.917607 -0.123242 3.497723
v -3.917607 -1.123242 3.497723
v -2.917607 -1.123242 3.497723
v -2.917607 -0.123242 3.497723
v -3.917607 -0.123242 3.497723
v -3.917607 5.876758 3.497723
v -2.917607 5.876758 3.497723
v -2.917607 6.876758 3.497723
v -3.917607 6.876758 3.497723
v -4.917607 5.876758 2.497723
v -3.917607 5.876758 2.497723
v -3.917607 6.876758 2.497723
v -4.917607 6.876758 2.497723
v -3.917607 -1.123242 1.497723
v -3.917607 -0.123242 1.497723
v -2.917607 -0.123242 1.497723
v -2.917607 -1.123242 1.497723
v -2.917607 -1.123242 1.497723
v -2.917607 -0.123242 1.497723
v -1.917607 -0.123242 1.497723
v -1.917607 -1.123242 1.497723
v -1.917607 4.876758 1.497723
v -1.917607 5.876758 1.497723
v -0.917607 5.876758 1.497723
v -0.917607 4.876758 1.497723
v -3.917607 -0.123242 1.497723
v -3.917607 0.876758 1.497723
v -2.917607 0.876758 1.497723
v -2.917607 -0.123242 1.497723
v -2.917607 -0.123242 1.497723
v -2.917607 0.876758 1.497723
v -1.917607 0.876758 1.497723
v -1.917607 -0.123242 1.497723
v -2.917607 0.876758 1.497723
v -2.917607 1.876758 1.497723
v -1.917607 1.876758 1.497723
v -1.917607 0.876758 1.497723
v -2.917607 1.876758 1.497723
v -2.917607 2.876758 1.497723
v -1.917607 2.876758 1.497723
v -1.917607 1.876758 1.497723
v -2.917607 2.876758 1.497723
v -2.917607 3.876758 1.497723
v -1.917607 3.876758 1.497723
v -1.917607 2.876758 1.497723
v -3.917607 3.876758 1.497723
v -3.917607 4.876758 1.497723
v -2.917607 4.876758 1.497723
v -2.917607 3.876758 1.497723
v -2.917607 3.876758 1.497723
v -2.917607 4.876758 1.497723
v -1.917607 4.876758 1.497723
v -1.917607 3.876758 1.497723
v -3.917607 4.876758 1.497723
v -3.917607 5.876758 1.497723
v -2.917607 5.876758 1.497723
v -2.917607 4.876758 1.497723
v -2.917607 4.876758 1.497723
v -2.917607 5.876758 1.497723
v -1.917607 5.876758 1.497723
v -1.917607 4.876758 1.497723
v -2.917607 5.876758 4.497723
v -2.917607 5.876758 3.497723
v -1.917607 5.876758 3.497723
v -1.917607 5.876758 4.497723
v -3.917607 3.876758 3.497723
v -3.917607 3.876758 2.497723
v -2.917607 3.876758 2.497723
v -2.917607 3.876758 3.497723
v -1.917607 4.876758 3.497723
v -1.917607 4.876758 2.497723
v -0.917607 4.876758 2.497723
v -0.917607 4.876758 3.497723
v -2.917607 -1.123242 3.497723
v -2.917607 -1.123242 2.497723
v -1.917607 -1.123242 2.497723
v -1.917607 -1.123242 3.497723
v -3.917607 -1.123242 3.497723
v -3.917607 -1.123242 2.497723
v -2.917607 -1.123242 2.497723
v -2.917607 -1.123242 3.497723
v -1.917607 5.876758 1.497723
v -1.917607 5.876758 0.497723
v -0.917607 5.876758 0.497723
v -0.917607 5.876758 1.497723
v -2.917607 5.876758 1.497723
v -2.917607 5.876758 0.497723
v -1.917607 5.876758 0.497723
v -1.917607 5.876758 1.497723
v -4.917607 5.876758 1.497723
v -4.917607 5.876758 0.497723
v -3.917607 5.876758 0.497723
v -3.917607 5.876758 1.497723
v -3.917607 5.876758 1.497723
v -3.917607 5.876758 0.497723
v -2.917607 5.876758 0.497723
v -2.917607 5.876758 1.497723
v -3.917607 -1.123242 2.497723
v -3.917607 -1.123242 1.497723
v -2.917607 -1.123242 1.497723
v -2.917607 -1.123242 2.497723
v -2.917607 -1.123242 2.497723
v -2.917607 -1.123242 1.497723
v -1.917607 -1.123242 1.497723
v -1.917607 -1.123242 2.497723
v -1.917607 4.876758 2.497723
v -1.917607 4.876758 1.497723
v -0.917607 4.876758 1.497723
v -0.917607 4.876758 2.497723
v -3.917607 3.876758 2.497723
v -3.917607 3.876758 1.497723
v -2.917607 3.876758 1.497723
v -2.917607 3.876758 2.497723
v -4.917607 5.876758 2.497723
v -4.917607 5.876758 1.497723
v -3.917607 5.876758 1.497723
v -3.917607 5.876758 2.497723
v -3.917607 0.876758 3.497723
v -2.917607 0.876758 3.497723
v -2.917607 0.876758 2.497723
v -3.917607 0.876758 2.497723
v -3.917607 0.876758 2.497723
v -2.917607 0.876758 2.497723
v -2.917607 0.876758 1.497723
v -3.917607 0.876758 1.497723
vn -1.0000 0.0000 0.0000
vn 1.0000 0.0000 0.0000
vn 0.0000 0.0000 1.0000
vn 0.0000 0.0000 -1.0000
vn 0.0000 -1.0000 0.0000
vn 0.0000 1.0000 0.0000
usemtl None
s off
f 1//1 2//1 3//1 4//1
f 5//1 6//1 7//1 8//1
f 9//1 10//1 11//1 12//1
f 13//1 14//1 15//1 16//1
f 17//1 18//1 19//1 20//1
f 21//1 22//1 23//1 24//1
f 25//1 26//1 27//1 28//1
f 29//1 30//1 31//1 32//1
f 33//1 34//1 35//1 36//1
f 37//1 38//1 39//1 40//1
f 41//1 42//1 43//1 44//1
f 45//1 46//1 47//1 48//1
f 49//1 50//1 51//1 52//1
f 53//1 54//1 55//1 56//1
f 57//1 58//1 59//1 60//1
f 61//1 62//1 63//1 64//1
f 65//1 66//1 67//1 68//1
f 69//1 70//1 71//1 72//1
f 73//2 74//2 75//2 76//2
f 77//2 78//2 79//2 80//2
f 81//2 82//2 83//2 84//2
f 85//2 86//2 87//2 88//2
f 89//2 90//2 91//2 92//2
f 93//2 94//2 95//2 96//2
f 97//2 98//2 99//2 100//2
f 101//2 102//2 103//2 104//2
f 105//2 106//2 107//2 108//2
f 109//2 110//2 111//2 112//2
f 113//2 114//2 115//2 116//2
f 117//2 118//2 119//2 120//2
f 121//2 122//2 123//2 124//2
f 125//2 126//2 127//2 128//2
f 129//2 130//2 131//2 132//2
f 133//2 134//2 135//2 136//2
f 137//2 138//2 139//2 140//2
f 141//2 142//2 143//2 144//2
f 145//3 146//3 147//3 148//3
f 149//3 150//3 151//3 152//3
f 153//3 154//3 155//3 156//3
f 157//3 158//3 159//3 160//3
f 161//3 162//3 163//3 164//3
f 165//3 166//3 167//3 168//3
f 169//3 170//3 171//3 172//3
f 173//3 174//3 175//3 176//3
f 177//3 178//3 179//3 180//3
f 181//3 182//3 183//3 184//3
f 185//3 186//3 187//3 188//3
f 189//3 190//3 191//3 192//3
f 193//3 194//3 195//3 196//3
f 197//3 198//3 199//3 200//3
f 201//3 202//3 203//3 204//3
f 205//3 206//3 207//3 208//3
f 209//4 210//4 211//4 212//4
f 213//4 214//4 215//4 216//4
f 217//4 218//4 219//4 220//4
f 221//4 222//4 223//4 224//4
f 225//4 226//4 227//4 228//4
f 229//4 230//4 231//4 232//4
f 233//4 234//4 235//4 236//4
f 237//4 238//4 239//4 240//4
f 241//4 242//4 243//4 244//4
f 245//4 246//4 247//4 248//4
f 249//4 250//4 251//4 252//4
f 253//4 254//4 255//4 256//4
f 257//5 258//5 259//5 260//5
f 261//5 262//5 263//5 264//5
f 265//5 266//5 267//5 268//5
f 269//5 270//5 271//5 272//5
f 273//5 274//5 275//5 276//5
f 277//5 278//5 279//5 280//5
f 281//5 282//5 283//5 284//5
f 285//5 286//5 287//5 288//5
f 289//5 290//5 291//5 292//5
f 293//5 294//5 295//5 296//5
f 297//5 298//5 299//5 300//5
f 301//5 302//5 303//5 304//5
f 305//5 306//5 307//5 308//5
f 309//5 310//5 311//5 312//5
f 313//6 314//6 315//6 316//6
f 317//6 318//6 319//6 320//6
